<svg width="64" height="64" viewBox="0 0 64 64" fill="none" xmlns="http://www.w3.org/2000/svg">
<path d="M58.7849 41.2238C59.3283 41.6581 59.6956 42.275 59.8184 42.9598C59.9412 43.6446 59.8109 44.3506 59.4523 44.9468L54.6486 54.6737L44.9217 59.4774C44.3245 59.8395 43.6158 59.9715 42.928 59.8487C42.2405 59.7257 41.6214 59.3566 41.1863 58.81L33.6184 47.178C32.1372 45.3263 31.3909 42.9934 31.5224 40.6257C31.6539 38.2582 32.6537 36.0222 34.3307 34.3458C36.0073 32.6698 38.2431 31.6707 40.6101 31.5398C42.9771 31.4088 45.3092 32.1551 47.1604 33.636L58.7849 41.2238Z" stroke="#6CD5FF" stroke-width="2" stroke-linecap="round" stroke-linejoin="round"/>
<path d="M28.1124 28.1375L3.88721 3.85742" stroke="#6CD5FF" stroke-width="2" stroke-linecap="round" stroke-linejoin="round"/>
<path d="M31.9753 38.1705L28.1129 34.3629C27.2874 33.5371 26.8237 32.4175 26.8237 31.2501C26.8237 30.0824 27.2874 28.9628 28.1129 28.1373C28.9384 27.3117 30.0583 26.848 31.2257 26.848C32.3932 26.848 33.5128 27.3117 34.3385 28.1373L38.2283 31.9722" stroke="#6CD5FF" stroke-width="2" stroke-linecap="round" stroke-linejoin="round"/>
<path d="M50.8985 56.5263L43.0542 48.682" stroke="#6CD5FF" stroke-width="2" stroke-linecap="round" stroke-linejoin="round"/>
<path d="M57.2088 49.4914L48.6572 43.079" stroke="#6CD5FF" stroke-width="2" stroke-linecap="round" stroke-linejoin="round"/>
<path d="M41.241 18.799H52.4471" stroke="#6CD5FF" stroke-width="2" stroke-linecap="round" stroke-linejoin="round"/>
<path d="M46.844 13.1959V24.4021" stroke="#6CD5FF" stroke-width="2" stroke-linecap="round" stroke-linejoin="round"/>
<path d="M24.4316 7.5929H31.9024" stroke="#6CD5FF" stroke-width="2" stroke-linecap="round" stroke-linejoin="round"/>
<path d="M28.167 3.85742V11.3282" stroke="#6CD5FF" stroke-width="2" stroke-linecap="round" stroke-linejoin="round"/>
<path d="M3.88721 31.8728H11.358" stroke="#6CD5FF" stroke-width="2" stroke-linecap="round" stroke-linejoin="round"/>
<path d="M7.62256 28.1375V35.6082" stroke="#6CD5FF" stroke-width="2" stroke-linecap="round" stroke-linejoin="round"/>
<path d="M20.6963 56.1528H28.1671" stroke="#6CD5FF" stroke-width="2" stroke-linecap="round" stroke-linejoin="round"/>
<path d="M24.4316 52.4174V59.8881" stroke="#6CD5FF" stroke-width="2" stroke-linecap="round" stroke-linejoin="round"/>
<path d="M54.3818 7.59279C53.8661 7.59279 53.448 7.1747 53.448 6.65894C53.448 6.14321 53.8661 5.7251 54.3818 5.7251" stroke="#6CD5FF" stroke-width="2"/>
<path d="M54.3818 7.59279C54.8976 7.59279 55.3157 7.1747 55.3157 6.65894C55.3157 6.14321 54.8976 5.7251 54.3818 5.7251" stroke="#6CD5FF" stroke-width="2"/>
<path d="M9.31324 54.1232C8.79751 54.1232 8.37939 53.7051 8.37939 53.1893C8.37939 52.6736 8.79751 52.2555 9.31324 52.2555" stroke="#6CD5FF" stroke-width="2"/>
<path d="M9.31323 54.1232C9.82899 54.1232 10.2471 53.7051 10.2471 53.1893C10.2471 52.6736 9.82899 52.2555 9.31323 52.2555" stroke="#6CD5FF" stroke-width="2"/>
<path d="M20.2752 44.379C19.7594 44.379 19.3413 43.9609 19.3413 43.4452C19.3413 42.9295 19.7594 42.5114 20.2752 42.5114" stroke="#6CD5FF" stroke-width="2"/>
<path d="M20.2751 44.379C20.7909 44.379 21.209 43.9609 21.209 43.4452C21.209 42.9295 20.7909 42.5114 20.2751 42.5114" stroke="#6CD5FF" stroke-width="2"/>
</svg>
