<svg width="33" height="20" viewBox="0 0 33 20" fill="none" xmlns="http://www.w3.org/2000/svg">
<g clip-path="url(#clip0_171_21)">
<path d="M8.53599 18.7647C7.94755 19.4035 6.95425 19.3447 6.43829 18.6405L0.8104 10.9594C0.297106 10.2589 0.495137 9.24476 1.22987 8.81137L12.4514 2.1922C16.0301 0.0812654 20.2881 -0.142215 23.995 1.58634L32.1353 5.38235C32.2613 5.44106 32.3713 5.53188 32.4552 5.64645C32.903 6.25768 32.4233 7.13106 31.6935 7.03322L26.8441 6.38291C22.9719 5.86368 19.0742 7.32553 16.2991 10.3378L8.53599 18.7647Z" fill="white"/>
<path d="M19.7204 20.3105C19.2575 21.05 18.276 21.1881 17.6431 20.6027L14.83 18.0008C14.1972 17.4155 14.207 16.3787 14.8507 15.8065L17.6858 13.2867C20.8378 10.4853 24.9894 9.39341 28.941 10.3265L31.0741 10.8302C31.1503 10.8482 31.2209 10.886 31.2794 10.9401C31.588 11.2256 31.4152 11.7593 31.0043 11.7893L30.9588 11.7926C27.0565 12.078 23.4768 14.3089 21.274 17.8284L19.7204 20.3105Z" fill="white"/>
</g>
<defs>
<clipPath id="clip0_171_21">
<rect width="33" height="20" fill="white"/>
</clipPath>
</defs>
</svg>
